<svg width="334" height="64" viewBox="0 0 334 64" fill="none" xmlns="http://www.w3.org/2000/svg">
<path fill-rule="evenodd" clip-rule="evenodd" d="M15.546 4.01908C15.5457 3.18456 16.2224 2.50737 17.0574 2.50708C17.8925 2.50679 18.5696 3.18349 18.5699 4.01854C18.5702 4.85359 17.8935 5.53078 17.0585 5.53108C16.6573 5.53122 16.2726 5.37198 15.989 5.08841C15.7053 4.80484 15.5459 4.42018 15.5459 4.01908H15.546Z" fill="#FFEDB2"/>
<path fill-rule="evenodd" clip-rule="evenodd" d="M77.0625 61.929C77.063 61.094 77.7402 60.4176 78.5752 60.418C79.4102 60.4184 80.0867 61.0954 80.0864 61.9304C80.0862 62.7653 79.4093 63.442 78.5743 63.442C78.1732 63.4419 77.7886 63.2825 77.505 62.9987C77.2214 62.7149 77.0624 62.3301 77.0626 61.929H77.0625Z" fill="#FFEDB2"/>
<path fill-rule="evenodd" clip-rule="evenodd" d="M330.394 50.269C330.394 49.6569 330.762 49.1057 331.327 48.8719C331.892 48.6381 332.543 48.7677 332.975 49.2002C333.407 49.6328 333.536 50.2832 333.302 50.8481C333.068 51.413 332.516 51.7812 331.905 51.781C331.07 51.7806 330.394 51.1038 330.394 50.269H330.394Z" fill="#FFEDB2"/>
<path fill-rule="evenodd" clip-rule="evenodd" d="M229.441 5.68807C229.441 5.07704 229.809 4.52558 230.374 4.29136C230.939 4.05714 231.59 4.18629 232.022 4.61857C232.455 5.05086 232.584 5.70116 232.35 6.26624C232.117 6.83131 231.565 7.19987 230.954 7.20007C230.553 7.20019 230.168 7.04095 229.884 6.75738C229.601 6.47381 229.441 6.08916 229.441 5.68807Z" fill="#FFEDB2"/>
<path fill-rule="evenodd" clip-rule="evenodd" d="M223.12 44.51C223.12 43.8981 223.488 43.3461 224.053 43.1115C224.619 42.877 225.27 43.0061 225.703 43.4387C226.135 43.8713 226.265 44.5222 226.031 45.0877C225.797 45.6532 225.245 46.022 224.633 46.022C223.798 46.0221 223.121 45.3453 223.12 44.51H223.12Z" fill="#FFEDB2"/>
<path fill-rule="evenodd" clip-rule="evenodd" d="M314.026 2.50303C314.026 1.89108 314.395 1.33938 314.96 1.10519C315.526 0.871017 316.177 1.00047 316.609 1.4332C317.042 1.86593 317.171 2.5167 316.937 3.08207C316.703 3.64744 316.151 4.01606 315.539 4.01603C314.704 4.016 314.026 3.33862 314.026 2.50303Z" fill="#FFEDB2"/>
<path fill-rule="evenodd" clip-rule="evenodd" d="M144.36 15.7821C144.36 15.1701 144.729 14.6184 145.294 14.3842C145.86 14.1501 146.51 14.2795 146.943 14.7122C147.376 15.145 147.505 15.7958 147.271 16.3611C147.037 16.9265 146.485 17.2951 145.873 17.2951C145.472 17.2953 145.087 17.136 144.803 16.8522C144.519 16.5684 144.36 16.1834 144.36 15.7821Z" fill="#FFEDB2"/>
<path fill-rule="evenodd" clip-rule="evenodd" d="M0 33.979C0.000244141 33.1435 0.677429 32.4668 1.51245 32.467C2.34753 32.4673 3.02423 33.1445 3.02399 33.9795C3.02368 34.8146 2.3465 35.4913 1.51147 35.491C0.676636 35.4908 0 34.8139 0 33.979Z" fill="#FFEDB2"/>
</svg>
