<svg width="334" height="64" viewBox="0 0 334 64" fill="none" xmlns="http://www.w3.org/2000/svg">
<circle cx="296.418" cy="12.262" r="5.61" fill="white" fill-opacity="0.2"/>
<path fill-rule="evenodd" clip-rule="evenodd" d="M296.419 18.836C296.167 18.8362 295.926 18.7365 295.748 18.5587C295.57 18.3809 295.47 18.1396 295.47 17.888V6.63599C295.47 6.3844 295.57 6.14313 295.748 5.9653C295.926 5.78749 296.167 5.68773 296.419 5.68799C296.942 5.68799 297.367 6.11243 297.367 6.63599V17.888C297.367 18.4116 296.942 18.836 296.419 18.836Z" fill="white" fill-opacity="0.298039"/>
<path fill-rule="evenodd" clip-rule="evenodd" d="M302.992 12.262C302.992 12.5136 302.892 12.755 302.714 12.933C302.537 13.111 302.295 13.211 302.044 13.211L290.792 13.211C290.54 13.211 290.299 13.111 290.121 12.933C289.943 12.755 289.844 12.5136 289.844 12.262C289.844 11.7384 290.268 11.314 290.792 11.314H302.044C302.567 11.314 302.992 11.7384 302.992 12.262Z" fill="white" fill-opacity="0.298039"/>
<path fill-rule="evenodd" clip-rule="evenodd" d="M300.397 12.262C300.397 12.7861 299.973 13.211 299.448 13.211L293.386 13.211C292.862 13.211 292.438 12.7861 292.438 12.262C292.438 11.7383 292.863 11.314 293.386 11.314H299.448C299.7 11.3137 299.941 11.4135 300.12 11.5913C300.297 11.7691 300.397 12.0104 300.397 12.262Z" fill="white"/>
<path fill-rule="evenodd" clip-rule="evenodd" d="M296.419 16.242C296.167 16.2422 295.925 16.1423 295.747 15.9643C295.569 15.7863 295.469 15.5448 295.47 15.293V9.23099C295.47 8.70688 295.895 8.28201 296.419 8.28198C296.943 8.28255 297.367 8.70726 297.367 9.23099V15.293C297.367 15.5446 297.267 15.786 297.089 15.964C296.912 16.142 296.67 16.242 296.419 16.242V16.242Z" fill="white"/>
<circle cx="41.4987" cy="52.474" r="5.61" fill="white" fill-opacity="0.2"/>
<path fill-rule="evenodd" clip-rule="evenodd" d="M41.5017 59.048C40.9781 59.048 40.5537 58.6236 40.5537 58.1V46.848C40.5537 46.3245 40.9781 45.9 41.5017 45.9C41.7533 45.8998 41.9947 45.9995 42.1727 46.1773C42.3506 46.3552 42.4507 46.5964 42.4507 46.848V58.1C42.4507 58.3516 42.3506 58.5929 42.1727 58.7707C41.9947 58.9485 41.7533 59.0483 41.5017 59.048V59.048Z" fill="white" fill-opacity="0.298039"/>
<path fill-rule="evenodd" clip-rule="evenodd" d="M48.0728 52.474C48.0731 52.7258 47.9732 52.9673 47.7952 53.1453C47.6171 53.3234 47.3756 53.4232 47.1238 53.423L35.8728 53.423C35.6212 53.423 35.3799 53.323 35.2021 53.145C35.0243 52.967 34.9246 52.7256 34.9248 52.474C34.9248 51.9504 35.3492 51.526 35.8728 51.526H47.1238C47.3754 51.5257 47.6168 51.6255 47.7948 51.8033C47.9728 51.9811 48.0728 52.2224 48.0728 52.474Z" fill="white" fill-opacity="0.298039"/>
<path fill-rule="evenodd" clip-rule="evenodd" d="M45.4785 52.474C45.4788 52.7256 45.379 52.967 45.2012 53.145C45.0234 53.323 44.7821 53.423 44.5305 53.423L38.4685 53.423C37.9444 53.423 37.5195 52.9981 37.5195 52.474C37.52 51.9503 37.9447 51.5261 38.4684 51.526H44.5305C45.0541 51.526 45.4785 51.9504 45.4785 52.474Z" fill="white"/>
<path fill-rule="evenodd" clip-rule="evenodd" d="M41.5017 56.454C40.978 56.4535 40.5537 56.0287 40.5537 55.505V49.443C40.5535 49.1914 40.6532 48.95 40.8311 48.772C41.0089 48.594 41.2501 48.494 41.5017 48.494C41.7535 48.4938 41.995 48.5937 42.173 48.7717C42.3511 48.9497 42.4509 49.1913 42.4507 49.443V55.505C42.4507 56.0291 42.0258 56.454 41.5017 56.454Z" fill="white"/>
<path fill-rule="evenodd" clip-rule="evenodd" d="M15.546 4.01907C15.5457 3.18454 16.2224 2.50737 17.0574 2.50708C17.8925 2.50677 18.5696 3.18349 18.5699 4.01854C18.5702 4.85359 17.8935 5.53078 17.0585 5.53107C16.6573 5.5312 16.2726 5.37196 15.989 5.08839C15.7053 4.80482 15.5459 4.42017 15.5459 4.01907H15.546Z" fill="#FFEDB2"/>
<path fill-rule="evenodd" clip-rule="evenodd" d="M77.0625 61.9291C77.063 61.0941 77.7402 60.4177 78.5752 60.4181C79.4102 60.4185 80.0867 61.0956 80.0864 61.9305C80.0862 62.7654 79.4093 63.4421 78.5743 63.4421C78.1732 63.442 77.7886 63.2826 77.505 62.9988C77.2214 62.7151 77.0624 62.3302 77.0626 61.9291H77.0625Z" fill="#FFEDB2"/>
<path fill-rule="evenodd" clip-rule="evenodd" d="M330.394 50.269C330.394 49.6569 330.762 49.1057 331.327 48.8719C331.892 48.6381 332.543 48.7677 332.975 49.2003C333.407 49.6328 333.536 50.2832 333.302 50.8481C333.068 51.4131 332.516 51.7812 331.905 51.781C331.07 51.7807 330.394 51.1038 330.394 50.269H330.394Z" fill="#FFEDB2"/>
<path fill-rule="evenodd" clip-rule="evenodd" d="M229.441 5.68806C229.441 5.07704 229.809 4.52559 230.374 4.29137C230.939 4.05714 231.59 4.18628 232.022 4.61858C232.455 5.05086 232.584 5.70116 232.35 6.26624C232.117 6.83131 231.565 7.19987 230.954 7.20007C230.553 7.2002 230.168 7.04094 229.884 6.75737C229.601 6.47382 229.441 6.08916 229.441 5.68806Z" fill="#FFEDB2"/>
<path fill-rule="evenodd" clip-rule="evenodd" d="M223.12 44.51C223.12 43.8981 223.488 43.3461 224.053 43.1115C224.619 42.877 225.27 43.0061 225.703 43.4387C226.135 43.8713 226.265 44.5221 226.031 45.0877C225.797 45.6532 225.245 46.022 224.633 46.022C223.798 46.022 223.121 45.3452 223.12 44.51H223.12Z" fill="#FFEDB2"/>
<path fill-rule="evenodd" clip-rule="evenodd" d="M314.026 2.50304C314.026 1.89107 314.395 1.33937 314.96 1.10519C315.526 0.871017 316.177 1.00047 316.609 1.4332C317.042 1.86592 317.171 2.51671 316.937 3.08208C316.703 3.64745 316.151 4.01605 315.539 4.01604C314.704 4.01599 314.026 3.33861 314.026 2.50304Z" fill="#FFEDB2"/>
<path fill-rule="evenodd" clip-rule="evenodd" d="M144.36 15.7821C144.36 15.1701 144.729 14.6184 145.294 14.3842C145.86 14.1501 146.51 14.2795 146.943 14.7122C147.376 15.145 147.505 15.7958 147.271 16.3611C147.037 16.9265 146.485 17.2951 145.873 17.2951C145.472 17.2953 145.087 17.136 144.803 16.8522C144.519 16.5684 144.36 16.1834 144.36 15.7821Z" fill="#FFEDB2"/>
<path fill-rule="evenodd" clip-rule="evenodd" d="M0 33.979C0.000244141 33.1435 0.677429 32.4668 1.51245 32.467C2.34753 32.4673 3.02423 33.1445 3.02399 33.9796C3.02368 34.8146 2.3465 35.4913 1.51147 35.4911C0.676636 35.4908 0 34.8139 0 33.979Z" fill="#FFEDB2"/>
</svg>
